# xmcd CD database file
#
# Track frame offsets:
#	150
#	18895
#	32942
#	49824
#	67160
#	80778
#	96263
#	113735
#	132149
#	149803
#	167416
#
# Disc length: 2442 seconds
#
# Revision: 1
# Processed by: cddbd v1.5.2PL0 Copyright (c) Steve Scherf et al.
# Submitted via: CDex 2.21
#
DISCID=9c09880b
DTITLE=Terri Clark - My Next Life
DYEAR=2007
DGENRE=Country
TTITLE0=In My Next Life
TTITLE1=Look What You've Done To Me
TTITLE2=Tough With Me
TTITLE3=Never Say No
TTITLE4=Dirty Girl
TTITLE5=Nashville girls
TTITLE6=Gypsy Boots
TTITLE7=The Only Time You Call
TTITLE8=Happy Yet
TTITLE9=Tumblin' Down
TTITLE10=Live From America
EXTD=YEAR: 2007
EXTT0=
EXTT1=
EXTT2=
EXTT3=
EXTT4=
EXTT5=
EXTT6=
EXTT7=
EXTT8=
EXTT9=
EXTT10=
PLAYORDER=
